<svg id="Слой_1" data-name="Слой 1" xmlns="http://www.w3.org/2000/svg" viewBox="0 0 565 565"><defs><style>.cls-1{fill:#666;}.cls-2{fill:none;stroke:#666;stroke-linecap:round;stroke-miterlimit:10;stroke-width:26px;}</style></defs><path class="cls-1" d="M975.5,294a255.65,255.65,0,1,1-99.83,20.15A254.8,254.8,0,0,1,975.5,294m0-26C819.48,268,693,394.48,693,550.5S819.48,833,975.5,833,1258,706.52,1258,550.5,1131.52,268,975.5,268Z" transform="translate(-693 -268)"/><path class="cls-1" d="M975.5,550a.5.5,0,1,1-.5.5.5.5,0,0,1,.5-.5m0-26a26.5,26.5,0,1,0,26.5,26.5A26.49,26.49,0,0,0,975.5,524Z" transform="translate(-693 -268)"/><polyline class="cls-2" points="209.01 155.09 282.85 282.21 396.99 215.91"/><line class="cls-2" x1="56" y1="282" x2="103" y2="282"/><line class="cls-2" x1="466" y1="282" x2="513" y2="282"/><line class="cls-2" x1="285" y1="51" x2="285" y2="98"/><line class="cls-2" x1="285" y1="461" x2="285" y2="508"/></svg>